<?xml version="1.0" encoding="UTF-8" standalone="no"?>
<!DOCTYPE svg PUBLIC "-//W3C//DTD SVG 1.1//EN"
 "http://www.w3.org/Graphics/SVG/1.1/DTD/svg11.dtd">
<!-- Generated by graphviz version 15.1.0 (20260618.0150)
 -->
<!-- Title: Azure Internal Web App &#45; LLD (West Europe) Pages: 1 -->
<svg width="1652pt" height="1644pt"
 viewBox="0.00 0.00 1652.00 1644.00" xmlns="http://www.w3.org/2000/svg" xmlns:xlink="http://www.w3.org/1999/xlink">
<g id="graph0" class="graph" transform="scale(1 1) rotate(0) translate(144 1499.5)">
<title>Azure Internal Web App &#45; LLD (West Europe)</title>
<polygon fill="white" stroke="none" points="-144,144 -144,-1499.5 1507.75,-1499.5 1507.75,144 -144,144"/>
<text xml:space="preserve" text-anchor="middle" x="681.88" y="-9.25" font-family="Sans-Serif" font-size="15.00" fill="#2d3436">Azure Internal Web App &#45; LLD (West Europe)</text>
<g id="clust1" class="cluster">
<title>cluster_VNet 10.20.0.0/16</title>
<path fill="#e5f5fd" stroke="#aeb6be" d="M250.55,-771.5C250.55,-771.5 1148.45,-771.5 1148.45,-771.5 1154.45,-771.5 1160.45,-777.5 1160.45,-783.5 1160.45,-783.5 1160.45,-1335.5 1160.45,-1335.5 1160.45,-1341.5 1154.45,-1347.5 1148.45,-1347.5 1148.45,-1347.5 250.55,-1347.5 250.55,-1347.5 244.55,-1347.5 238.55,-1341.5 238.55,-1335.5 238.55,-1335.5 238.55,-783.5 238.55,-783.5 238.55,-777.5 244.55,-771.5 250.55,-771.5"/>
<text xml:space="preserve" text-anchor="middle" x="296.05" y="-1332.1" font-family="Sans-Serif" font-size="12.00" fill="#2d3436">VNet 10.20.0.0/16</text>
</g>
<g id="clust2" class="cluster">
<title>cluster_Integration subnet 10.20.0.0/24</title>
<path fill="#ebf3e7" stroke="#aeb6be" d="M258.55,-779.5C258.55,-779.5 545.15,-779.5 545.15,-779.5 551.15,-779.5 557.15,-785.5 557.15,-791.5 557.15,-791.5 557.15,-973.5 557.15,-973.5 557.15,-979.5 551.15,-985.5 545.15,-985.5 545.15,-985.5 258.55,-985.5 258.55,-985.5 252.55,-985.5 246.55,-979.5 246.55,-973.5 246.55,-973.5 246.55,-791.5 246.55,-791.5 246.55,-785.5 252.55,-779.5 258.55,-779.5"/>
<text xml:space="preserve" text-anchor="middle" x="340.05" y="-970.1" font-family="Sans-Serif" font-size="12.00" fill="#2d3436">Integration subnet 10.20.0.0/24</text>
</g>
<g id="clust3" class="cluster">
<title>cluster_Private&#45;endpoints subnet 10.20.1.0/25</title>
<path fill="#ebf3e7" stroke="#aeb6be" d="M716.4,-779.5C716.4,-779.5 913.15,-779.5 913.15,-779.5 919.15,-779.5 925.15,-785.5 925.15,-791.5 925.15,-791.5 925.15,-1303.5 925.15,-1303.5 925.15,-1309.5 919.15,-1315.5 913.15,-1315.5 913.15,-1315.5 716.4,-1315.5 716.4,-1315.5 710.4,-1315.5 704.4,-1309.5 704.4,-1303.5 704.4,-1303.5 704.4,-791.5 704.4,-791.5 704.4,-785.5 710.4,-779.5 716.4,-779.5"/>
<text xml:space="preserve" text-anchor="middle" x="814.78" y="-1300.1" font-family="Sans-Serif" font-size="12.00" fill="#2d3436">Private&#45;endpoints subnet 10.20.1.0/25</text>
</g>
<g id="clust4" class="cluster">
<title>cluster_Private DNS zones</title>
<path fill="#ebf3e7" stroke="#aeb6be" d="M1047.65,-944.5C1047.65,-944.5 1140.45,-944.5 1140.45,-944.5 1146.45,-944.5 1152.45,-950.5 1152.45,-956.5 1152.45,-956.5 1152.45,-1138.5 1152.45,-1138.5 1152.45,-1144.5 1146.45,-1150.5 1140.45,-1150.5 1140.45,-1150.5 1047.65,-1150.5 1047.65,-1150.5 1041.65,-1150.5 1035.65,-1144.5 1035.65,-1138.5 1035.65,-1138.5 1035.65,-956.5 1035.65,-956.5 1035.65,-950.5 1041.65,-944.5 1047.65,-944.5"/>
<text xml:space="preserve" text-anchor="middle" x="1092.03" y="-1135.1" font-family="Sans-Serif" font-size="12.00" fill="#2d3436">Private DNS zones</text>
</g>
<!-- eff35c8b574d4b628f6b64095fdddc0b -->
<g id="node1" class="node">
<title>eff35c8b574d4b628f6b64095fdddc0b</title>
<image xlink:href="C:\Users\peternehme\AppData\Local\uv\cache\archive-v0\MGBOg1vIbm6dXYsI\Lib\site-packages\resources/onprem/client\users.png" width="100.8px" height="100.8px" preserveAspectRatio="xMinYMin meet" x="9.9476e-14" y="-920.9"/>
<text xml:space="preserve" text-anchor="middle" x="50.4" y="-806.25" font-family="Sans-Serif" font-size="13.00" fill="#2d3436">Internal user</text>
</g>
<!-- 350f0f59b9064954af72dc063527be0a -->
<g id="node3" class="node">
<title>350f0f59b9064954af72dc063527be0a</title>
<image xlink:href="C:\Users\peternehme\AppData\Local\uv\cache\archive-v0\MGBOg1vIbm6dXYsI\Lib\site-packages\resources/azure/compute\app-services.png" width="100.8px" height="100.8px" preserveAspectRatio="xMinYMin meet" x="254.55" y="-920.9"/>
<text xml:space="preserve" text-anchor="middle" x="304.95" y="-808.35" font-family="Sans-Serif" font-size="13.00" fill="#2d3436">Frontend App Service</text>
<text xml:space="preserve" text-anchor="middle" x="304.95" y="-791.85" font-family="Sans-Serif" font-size="13.00" fill="#2d3436">B1 &#45; Entra ID</text>
</g>
<!-- eff35c8b574d4b628f6b64095fdddc0b&#45;&gt;350f0f59b9064954af72dc063527be0a -->
<g id="edge1" class="edge">
<title>eff35c8b574d4b628f6b64095fdddc0b&#45;&gt;350f0f59b9064954af72dc063527be0a</title>
<path fill="none" stroke="#7b8894" d="M100.69,-870.5C100.69,-870.5 243.25,-870.5 243.25,-870.5"/>
<polygon fill="#7b8894" stroke="#7b8894" points="243.25,-874 253.25,-870.5 243.25,-867 243.25,-874"/>
<text xml:space="preserve" text-anchor="middle" x="177.68" y="-874.65" font-family="Sans-Serif" font-size="13.00" fill="#2d3436">HTTPS / Entra ID</text>
</g>
<!-- 2606ad924ea24c83b612a4055be48495 -->
<g id="node2" class="node">
<title>2606ad924ea24c83b612a4055be48495</title>
<image xlink:href="C:\Users\peternehme\AppData\Local\uv\cache\archive-v0\MGBOg1vIbm6dXYsI\Lib\site-packages\resources/azure/analytics\log-analytics-workspaces.png" width="100.8px" height="100.8px" preserveAspectRatio="xMinYMin meet" x="1262.95" y="-312.9"/>
<text xml:space="preserve" text-anchor="middle" x="1313.35" y="-198.25" font-family="Sans-Serif" font-size="13.00" fill="#2d3436">Log Analytics</text>
</g>
<!-- 350f0f59b9064954af72dc063527be0a&#45;&gt;2606ad924ea24c83b612a4055be48495 -->
<g id="edge12" class="edge">
<title>350f0f59b9064954af72dc063527be0a&#45;&gt;2606ad924ea24c83b612a4055be48495</title>
<path fill="none" stroke="#7b8894" stroke-dasharray="1,5" d="M304.75,-788.05C304.75,-780.26 304.75,-775.2 304.75,-775.2 304.75,-775.2 1323.75,-775.2 1323.75,-775.2 1323.75,-775.2 1323.75,-342.36 1323.75,-342.36"/>
<polygon fill="#7b8894" stroke="#7b8894" points="1327.25,-342.36 1323.75,-332.36 1320.25,-342.36 1327.25,-342.36"/>
<text xml:space="preserve" text-anchor="middle" x="814.28" y="-31.65" font-family="Sans-Serif" font-size="13.00" fill="#2d3436">diagnostics</text>
</g>
<!-- d668a9df511740cdaef9b5b600f13eca -->
<g id="node4" class="node">
<title>d668a9df511740cdaef9b5b600f13eca</title>
<image xlink:href="C:\Users\peternehme\AppData\Local\uv\cache\archive-v0\MGBOg1vIbm6dXYsI\Lib\site-packages\resources/azure/compute\app-services.png" width="100.8px" height="100.8px" preserveAspectRatio="xMinYMin meet" x="448.35" y="-920.9"/>
<text xml:space="preserve" text-anchor="middle" x="498.75" y="-808.35" font-family="Sans-Serif" font-size="13.00" fill="#2d3436">Backend App Service</text>
<text xml:space="preserve" text-anchor="middle" x="498.75" y="-791.85" font-family="Sans-Serif" font-size="13.00" fill="#2d3436">B1 &#45; Managed identity</text>
</g>
<!-- 350f0f59b9064954af72dc063527be0a&#45;&gt;d668a9df511740cdaef9b5b600f13eca -->
<g id="edge2" class="edge">
<title>350f0f59b9064954af72dc063527be0a&#45;&gt;d668a9df511740cdaef9b5b600f13eca</title>
<path fill="none" stroke="#7b8894" d="M355.11,-870.5C355.11,-870.5 436.95,-870.5 436.95,-870.5"/>
<polygon fill="#7b8894" stroke="#7b8894" points="436.95,-874 446.95,-870.5 436.95,-867 436.95,-874"/>
<text xml:space="preserve" text-anchor="middle" x="401.85" y="-874.65" font-family="Sans-Serif" font-size="13.00" fill="#2d3436">HTTPS</text>
</g>
<!-- d668a9df511740cdaef9b5b600f13eca&#45;&gt;2606ad924ea24c83b612a4055be48495 -->
<g id="edge13" class="edge">
<title>d668a9df511740cdaef9b5b600f13eca&#45;&gt;2606ad924ea24c83b612a4055be48495</title>
<path fill="none" stroke="#7b8894" stroke-dasharray="1,5" d="M549.08,-933.5C730.99,-933.5 1343.75,-933.5 1343.75,-933.5 1343.75,-933.5 1343.75,-342.36 1343.75,-342.36"/>
<polygon fill="#7b8894" stroke="#7b8894" points="1347.25,-342.36 1343.75,-332.36 1340.25,-342.36 1347.25,-342.36"/>
<text xml:space="preserve" text-anchor="middle" x="984.4" y="-118.65" font-family="Sans-Serif" font-size="13.00" fill="#2d3436">diagnostics</text>
</g>
<!-- cc33eea9301140dda393564e379a2277 -->
<g id="node5" class="node">
<title>cc33eea9301140dda393564e379a2277</title>
<image xlink:href="C:\Users\peternehme\AppData\Local\uv\cache\archive-v0\MGBOg1vIbm6dXYsI\Lib\site-packages\resources/azure/network\private-endpoint.png" width="100.8px" height="100.8px" preserveAspectRatio="xMinYMin meet" x="763.875" y="-1085.9"/>
<text xml:space="preserve" text-anchor="middle" x="814.28" y="-971.25" font-family="Sans-Serif" font-size="13.00" fill="#2d3436">SQL PE</text>
</g>
<!-- d668a9df511740cdaef9b5b600f13eca&#45;&gt;cc33eea9301140dda393564e379a2277 -->
<g id="edge5" class="edge">
<title>d668a9df511740cdaef9b5b600f13eca&#45;&gt;cc33eea9301140dda393564e379a2277</title>
<path fill="none" stroke="#7b8894" d="M549.13,-943.1C634.35,-943.1 797.75,-943.1 797.75,-943.1 797.75,-943.1 797.75,-955.86 797.75,-955.86"/>
<polygon fill="#7b8894" stroke="#7b8894" points="794.25,-955.86 797.75,-965.86 801.25,-955.86 794.25,-955.86"/>
<text xml:space="preserve" text-anchor="middle" x="626.78" y="-988.65" font-family="Sans-Serif" font-size="13.00" fill="#2d3436">private link</text>
</g>
<!-- 3d5cfe5bb9fa4f6e9fca676abf978bd0 -->
<g id="node6" class="node">
<title>3d5cfe5bb9fa4f6e9fca676abf978bd0</title>
<image xlink:href="C:\Users\peternehme\AppData\Local\uv\cache\archive-v0\MGBOg1vIbm6dXYsI\Lib\site-packages\resources/azure/network\private-endpoint.png" width="100.8px" height="100.8px" preserveAspectRatio="xMinYMin meet" x="763.875" y="-1265.9"/>
<text xml:space="preserve" text-anchor="middle" x="814.28" y="-1151.25" font-family="Sans-Serif" font-size="13.00" fill="#2d3436">Storage PE</text>
</g>
<!-- d668a9df511740cdaef9b5b600f13eca&#45;&gt;3d5cfe5bb9fa4f6e9fca676abf978bd0 -->
<g id="edge7" class="edge">
<title>d668a9df511740cdaef9b5b600f13eca&#45;&gt;3d5cfe5bb9fa4f6e9fca676abf978bd0</title>
<path fill="none" stroke="#7b8894" d="M498.75,-953.14C498.75,-1055.2 498.75,-1215.5 498.75,-1215.5 498.75,-1215.5 752.42,-1215.5 752.42,-1215.5"/>
<polygon fill="#7b8894" stroke="#7b8894" points="752.42,-1219 762.42,-1215.5 752.42,-1212 752.42,-1219"/>
<text xml:space="preserve" text-anchor="middle" x="626.78" y="-1139.65" font-family="Sans-Serif" font-size="13.00" fill="#2d3436">private link</text>
</g>
<!-- 6a6002fe354f4ebbb17eb1a61c96fb95 -->
<g id="node7" class="node">
<title>6a6002fe354f4ebbb17eb1a61c96fb95</title>
<image xlink:href="C:\Users\peternehme\AppData\Local\uv\cache\archive-v0\MGBOg1vIbm6dXYsI\Lib\site-packages\resources/azure/network\private-endpoint.png" width="100.8px" height="100.8px" preserveAspectRatio="xMinYMin meet" x="763.875" y="-905.9"/>
<text xml:space="preserve" text-anchor="middle" x="814.28" y="-791.25" font-family="Sans-Serif" font-size="13.00" fill="#2d3436">Key Vault PE</text>
</g>
<!-- d668a9df511740cdaef9b5b600f13eca&#45;&gt;6a6002fe354f4ebbb17eb1a61c96fb95 -->
<g id="edge3" class="edge">
<title>d668a9df511740cdaef9b5b600f13eca&#45;&gt;6a6002fe354f4ebbb17eb1a61c96fb95</title>
<path fill="none" stroke="#7b8894" d="M549.09,-855.8C549.09,-855.8 752.6,-855.8 752.6,-855.8"/>
<polygon fill="#7b8894" stroke="#7b8894" points="752.6,-859.3 762.6,-855.8 752.6,-852.3 752.6,-859.3"/>
<text xml:space="preserve" text-anchor="middle" x="626.78" y="-866.65" font-family="Sans-Serif" font-size="13.00" fill="#2d3436">managed identity</text>
</g>
<!-- 4d463dad96904e9ca01272fe5520d50f -->
<g id="node8" class="node">
<title>4d463dad96904e9ca01272fe5520d50f</title>
<image xlink:href="C:\Users\peternehme\AppData\Local\uv\cache\archive-v0\MGBOg1vIbm6dXYsI\Lib\site-packages\resources/azure/network\dns-private-zones.png" width="100.8px" height="100.8px" preserveAspectRatio="xMinYMin meet" x="1043.65" y="-1085.9"/>
<text xml:space="preserve" text-anchor="middle" x="1094.05" y="-973.35" font-family="Sans-Serif" font-size="13.00" fill="#2d3436">privatelink:</text>
<text xml:space="preserve" text-anchor="middle" x="1094.05" y="-956.85" font-family="Sans-Serif" font-size="13.00" fill="#2d3436">sql / blob / vault</text>
</g>
<!-- cc33eea9301140dda393564e379a2277&#45;&gt;4d463dad96904e9ca01272fe5520d50f -->
<g id="edge9" class="edge">
<title>cc33eea9301140dda393564e379a2277&#45;&gt;4d463dad96904e9ca01272fe5520d50f</title>
<path fill="none" stroke="darkgreen" stroke-dasharray="5,2" d="M864.62,-1058.3C864.62,-1058.3 1032.6,-1058.3 1032.6,-1058.3"/>
<polygon fill="darkgreen" stroke="darkgreen" points="1032.6,-1061.8 1042.6,-1058.3 1032.6,-1054.8 1032.6,-1061.8"/>
</g>
<!-- eea79f7d22a049359cccb4a69fc15ed3 -->
<g id="node9" class="node">
<title>eea79f7d22a049359cccb4a69fc15ed3</title>
<image xlink:href="C:\Users\peternehme\AppData\Local\uv\cache\archive-v0\MGBOg1vIbm6dXYsI\Lib\site-packages\resources/azure/database\sql-databases.png" width="100.8px" height="100.8px" preserveAspectRatio="xMinYMin meet" x="1043.65" y="-521.9"/>
<text xml:space="preserve" text-anchor="middle" x="1094.05" y="-409.35" font-family="Sans-Serif" font-size="13.00" fill="#2d3436">Azure SQL</text>
<text xml:space="preserve" text-anchor="middle" x="1094.05" y="-392.85" font-family="Sans-Serif" font-size="13.00" fill="#2d3436">Basic &#45; private</text>
</g>
<!-- cc33eea9301140dda393564e379a2277&#45;&gt;eea79f7d22a049359cccb4a69fc15ed3 -->
<g id="edge6" class="edge">
<title>cc33eea9301140dda393564e379a2277&#45;&gt;eea79f7d22a049359cccb4a69fc15ed3</title>
<path fill="none" stroke="#7b8894" d="M864.66,-1012.7C893.8,-1012.7 924.75,-1012.7 924.75,-1012.7 924.75,-1012.7 924.75,-471.5 924.75,-471.5 924.75,-471.5 1032.2,-471.5 1032.2,-471.5"/>
<polygon fill="#7b8894" stroke="#7b8894" points="1032.2,-475 1042.2,-471.5 1032.2,-468 1032.2,-475"/>
</g>
<!-- 3d5cfe5bb9fa4f6e9fca676abf978bd0&#45;&gt;4d463dad96904e9ca01272fe5520d50f -->
<g id="edge10" class="edge">
<title>3d5cfe5bb9fa4f6e9fca676abf978bd0&#45;&gt;4d463dad96904e9ca01272fe5520d50f</title>
<path fill="none" stroke="darkgreen" stroke-dasharray="5,2" d="M814.75,-1147.32C814.75,-1127.51 814.75,-1111.1 814.75,-1111.1 814.75,-1111.1 1032.28,-1111.1 1032.28,-1111.1"/>
<polygon fill="darkgreen" stroke="darkgreen" points="1032.28,-1114.6 1042.28,-1111.1 1032.28,-1107.6 1032.28,-1114.6"/>
</g>
<!-- cf76877a1a014f2c90ebe355ab175730 -->
<g id="node10" class="node">
<title>cf76877a1a014f2c90ebe355ab175730</title>
<image xlink:href="C:\Users\peternehme\AppData\Local\uv\cache\archive-v0\MGBOg1vIbm6dXYsI\Lib\site-packages\resources/azure/storage\storage-accounts.png" width="100.8px" height="100.8px" preserveAspectRatio="xMinYMin meet" x="1043.65" y="-730.9"/>
<text xml:space="preserve" text-anchor="middle" x="1094.05" y="-618.35" font-family="Sans-Serif" font-size="13.00" fill="#2d3436">Storage</text>
<text xml:space="preserve" text-anchor="middle" x="1094.05" y="-601.85" font-family="Sans-Serif" font-size="13.00" fill="#2d3436">private</text>
</g>
<!-- 3d5cfe5bb9fa4f6e9fca676abf978bd0&#45;&gt;cf76877a1a014f2c90ebe355ab175730 -->
<g id="edge8" class="edge">
<title>3d5cfe5bb9fa4f6e9fca676abf978bd0&#45;&gt;cf76877a1a014f2c90ebe355ab175730</title>
<path fill="none" stroke="#7b8894" d="M864.66,-1215.5C914.62,-1215.5 983.75,-1215.5 983.75,-1215.5 983.75,-1215.5 983.75,-680.5 983.75,-680.5 983.75,-680.5 1032.23,-680.5 1032.23,-680.5"/>
<polygon fill="#7b8894" stroke="#7b8894" points="1032.23,-684 1042.23,-680.5 1032.23,-677 1032.23,-684"/>
</g>
<!-- 6a6002fe354f4ebbb17eb1a61c96fb95&#45;&gt;4d463dad96904e9ca01272fe5520d50f -->
<g id="edge11" class="edge">
<title>6a6002fe354f4ebbb17eb1a61c96fb95&#45;&gt;4d463dad96904e9ca01272fe5520d50f</title>
<path fill="none" stroke="darkgreen" stroke-dasharray="5,2" d="M830.75,-923.87C830.75,-943.74 830.75,-960.2 830.75,-960.2 830.75,-960.2 1032.39,-960.2 1032.39,-960.2"/>
<polygon fill="darkgreen" stroke="darkgreen" points="1032.39,-963.7 1042.39,-960.2 1032.39,-956.7 1032.39,-963.7"/>
</g>
<!-- 392582b9f2014a60aa7f378fe41db694 -->
<g id="node11" class="node">
<title>392582b9f2014a60aa7f378fe41db694</title>
<image xlink:href="C:\Users\peternehme\AppData\Local\uv\cache\archive-v0\MGBOg1vIbm6dXYsI\Lib\site-packages\resources/azure/security\key-vaults.png" width="100.8px" height="100.8px" preserveAspectRatio="xMinYMin meet" x="1043.65" y="-312.9"/>
<text xml:space="preserve" text-anchor="middle" x="1094.05" y="-200.35" font-family="Sans-Serif" font-size="13.00" fill="#2d3436">Key Vault</text>
<text xml:space="preserve" text-anchor="middle" x="1094.05" y="-183.85" font-family="Sans-Serif" font-size="13.00" fill="#2d3436">MI access</text>
</g>
<!-- 6a6002fe354f4ebbb17eb1a61c96fb95&#45;&gt;392582b9f2014a60aa7f378fe41db694 -->
<g id="edge4" class="edge">
<title>6a6002fe354f4ebbb17eb1a61c96fb95&#45;&gt;392582b9f2014a60aa7f378fe41db694</title>
<path fill="none" stroke="#7b8894" d="M814.75,-787.19C814.75,-631.26 814.75,-262.5 814.75,-262.5 814.75,-262.5 1032.28,-262.5 1032.28,-262.5"/>
<polygon fill="#7b8894" stroke="#7b8894" points="1032.28,-266 1042.28,-262.5 1032.28,-259 1032.28,-266"/>
</g>
<!-- eea79f7d22a049359cccb4a69fc15ed3&#45;&gt;2606ad924ea24c83b612a4055be48495 -->
<g id="edge14" class="edge">
<title>eea79f7d22a049359cccb4a69fc15ed3&#45;&gt;2606ad924ea24c83b612a4055be48495</title>
<path fill="none" stroke="#7b8894" stroke-dasharray="1,5" d="M1144.12,-471.5C1200.03,-471.5 1282.75,-471.5 1282.75,-471.5 1282.75,-471.5 1282.75,-342.16 1282.75,-342.16"/>
<polygon fill="#7b8894" stroke="#7b8894" points="1286.25,-342.16 1282.75,-332.16 1279.25,-342.16 1286.25,-342.16"/>
<text xml:space="preserve" text-anchor="middle" x="1203.7" y="-403.65" font-family="Sans-Serif" font-size="13.00" fill="#2d3436">diagnostics</text>
</g>
<!-- cf76877a1a014f2c90ebe355ab175730&#45;&gt;2606ad924ea24c83b612a4055be48495 -->
<g id="edge15" class="edge">
<title>cf76877a1a014f2c90ebe355ab175730&#45;&gt;2606ad924ea24c83b612a4055be48495</title>
<path fill="none" stroke="#7b8894" stroke-dasharray="1,5" d="M1144.28,-680.5C1206.32,-680.5 1303.75,-680.5 1303.75,-680.5 1303.75,-680.5 1303.75,-342.1 1303.75,-342.1"/>
<polygon fill="#7b8894" stroke="#7b8894" points="1307.25,-342.1 1303.75,-332.1 1300.25,-342.1 1307.25,-342.1"/>
<text xml:space="preserve" text-anchor="middle" x="1203.7" y="-576.65" font-family="Sans-Serif" font-size="13.00" fill="#2d3436">diagnostics</text>
</g>
<!-- 392582b9f2014a60aa7f378fe41db694&#45;&gt;2606ad924ea24c83b612a4055be48495 -->
<g id="edge16" class="edge">
<title>392582b9f2014a60aa7f378fe41db694&#45;&gt;2606ad924ea24c83b612a4055be48495</title>
<path fill="none" stroke="#7b8894" stroke-dasharray="1,5" d="M1144.36,-262.5C1144.36,-262.5 1251.76,-262.5 1251.76,-262.5"/>
<polygon fill="#7b8894" stroke="#7b8894" points="1251.76,-266 1261.76,-262.5 1251.76,-259 1251.76,-266"/>
<text xml:space="preserve" text-anchor="middle" x="1203.7" y="-266.65" font-family="Sans-Serif" font-size="13.00" fill="#2d3436">diagnostics</text>
</g>
</g>
</svg>
